<?xml version="1.0" encoding="utf-8"?>
<!-- Generator: Adobe Illustrator 23.1.1, SVG Export Plug-In . SVG Version: 6.00 Build 0)  -->
<svg version="1.1" id="Layer_1" xmlns="http://www.w3.org/2000/svg" xmlns:xlink="http://www.w3.org/1999/xlink" x="0px" y="0px"
	 viewBox="0 0 1232 290" style="enable-background:new 0 0 1232 290;" xml:space="preserve">
<style type="text/css">
	.st0{fill:#FFFFFF;}
	.st1{fill-rule:evenodd;clip-rule:evenodd;fill:#FFFFFF;}
	.st2{fill-rule:evenodd;clip-rule:evenodd;fill:#FEDD00;}
	.st3{fill:none;stroke:#FFDD04;stroke-width:3;stroke-linecap:round;stroke-linejoin:round;}
</style>
<path class="st0" d="M413.5,231.9h-15l-57.2-87.6v87.6h-15V118.2h15l57.3,88v-88h14.9V231.9z"/>
<path class="st1" d="M444.9,222.2c7.2,7.5,16.5,11.3,27.9,11.3c14.1,0,24.8-5.4,31.8-16.3l-8.8-6.9c-2.6,3.4-5.7,6.2-9.3,8.3
	c-3.5,2.1-7.9,3.1-12.9,3.1c-7.2,0-13.1-2.6-17.7-7.7c-4.7-5.1-7.1-11.9-7.3-20.2h57.2v-6c0-13.5-3-23.8-9.1-31.1
	c-6.1-7.2-14.6-10.9-25.6-10.9c-6.7,0-12.9,1.9-18.7,5.6c-5.8,3.7-10.2,8.9-13.4,15.5c-3.2,6.6-4.8,14.1-4.8,22.4v2.6
	C434.1,204.6,437.7,214.7,444.9,222.2z M456.4,164.1c4-4.2,8.8-6.4,14.7-6.4c6,0,10.8,2,14.4,6.1c3.5,4,5.5,9.7,5.9,17.1v1.1H449
	C450,174.3,452.4,168.4,456.4,164.1z"/>
<path class="st0" d="M574.5,223.6c-5.6,6.6-13.9,9.9-24.7,9.9c-9,0-15.8-2.6-20.5-7.8c-4.7-5.2-7.1-13-7.1-23.2v-55h14.4V202
	c0,12.8,5.2,19.2,15.6,19.2c11,0,18.4-4.1,22-12.3v-61.4h14.4v84.5h-13.7L574.5,223.6z"/>
<path class="st1" d="M617.6,222.2c7.2,7.5,16.5,11.3,27.9,11.3c14.1,0,24.8-5.4,31.8-16.3l-8.8-6.9c-2.7,3.4-5.7,6.2-9.3,8.3
	c-3.5,2.1-7.9,3.1-12.9,3.1c-7.2,0-13.1-2.6-17.7-7.7c-4.7-5.1-7.1-11.9-7.3-20.2h57.2v-6c0-13.5-3-23.8-9.1-31.1
	c-6.1-7.2-14.6-10.9-25.6-10.9c-6.7,0-12.9,1.9-18.7,5.6c-5.7,3.7-10.2,8.9-13.4,15.5c-3.2,6.6-4.8,14.1-4.8,22.4v2.6
	C606.8,204.6,610.4,214.7,617.6,222.2z M629,164.1c3.9-4.2,8.8-6.4,14.7-6.4c6,0,10.8,2,14.3,6.1c3.5,4,5.5,9.7,5.9,17.1v1.1h-42.3
	C622.6,174.3,625.1,168.4,629,164.1z"/>
<path class="st0" d="M735.9,160.4c-2.2-0.4-4.6-0.5-7.1-0.5c-9.5,0-15.9,4-19.3,12.1v60h-14.4v-84.5h14l0.2,9.8
	c4.7-7.5,11.4-11.3,20.1-11.3c2.8,0,4.9,0.4,6.4,1.1V160.4z"/>
<path class="st0" d="M816.7,182.7h-44.9v30.4h52.7v18.8h-76.1V118.2h76v19h-52.6v27.1h44.9V182.7z"/>
<path class="st0" d="M857.4,147.4l0.7,9.8c6-7.5,14.1-11.3,24.2-11.3c8.9,0,15.6,2.6,20,7.9c4.4,5.3,6.6,13.1,6.7,23.6v54.6h-22.5
	v-54c0-4.8-1-8.3-3.1-10.4c-2.1-2.2-5.6-3.2-10.4-3.2c-6.3,0-11.1,2.7-14.3,8.1v59.6h-22.5v-84.5L857.4,147.4L857.4,147.4z"/>
<path class="st1" d="M934.8,222.1c7.8,7.6,17.8,11.4,30.2,11.4c7,0,13.4-1.3,19.2-4c5.8-2.7,10.3-6.4,13.7-11.2l-11.1-12.4
	c-4.9,6.3-11.7,9.4-20.3,9.4c-5.6,0-10.3-1.7-13.9-5c-3.7-3.3-5.9-7.7-6.6-13.3h53.7v-9.2c0-13.4-3.3-23.7-9.9-31
	c-6.6-7.3-15.7-10.9-27.3-10.9c-7.7,0-14.6,1.8-20.6,5.4c-6,3.6-10.6,8.8-13.9,15.5c-3.3,6.7-4.9,14.3-4.9,22.8v2.2
	C923.1,204.4,927,214.5,934.8,222.1z M951.5,168.6c2.8-3,6.4-4.6,10.9-4.6c4.8,0,8.5,1.4,11.1,4.1c2.6,2.7,3.9,6.6,4.1,11.6v1.8
	h-31.4C947,176,948.7,171.7,951.5,168.6z"/>
<path class="st0" d="M1059.9,168.6c-3.1-0.4-5.8-0.6-8.1-0.6c-8.5,0-14.1,2.9-16.8,8.7v55.3h-22.5v-84.5h21.3l0.6,10.1
	c4.5-7.8,10.8-11.6,18.8-11.6c2.5,0,4.8,0.3,7,1L1059.9,168.6z"/>
<path class="st1" d="M1075.2,157.8c-6.2,7.9-9.2,18.3-9.2,31.3h0v0.9c0,13.1,3.1,23.6,9.4,31.6c6.2,7.9,14.5,11.9,24.6,11.9
	c8.5,0,15.3-2.9,20.5-8.8v4.5c0,5.9-1.7,10.4-5,13.6c-3.3,3.2-8,4.8-13.9,4.8c-8,0-14.8-3.1-20.4-9.4l-10,13.7
	c3,3.9,7.4,7.1,13.3,9.6c5.9,2.5,11.9,3.7,18.1,3.7c8.2,0,15.3-1.4,21.4-4.3c6.1-2.9,10.8-7,14.1-12.5c3.4-5.5,5-11.9,5-19.3v-81.7
	h-20.4l-0.9,8c-5.1-6.4-12.3-9.5-21.6-9.5C1089.7,145.9,1081.4,149.9,1075.2,157.8z M1093.1,208.8c-3.1-4.3-4.6-10.4-4.6-18
	c0-8.8,1.6-15.4,4.6-19.9c3.1-4.4,7.3-6.7,12.8-6.7c6.7,0,11.6,2.6,14.6,7.7v35.6c-3,5.2-7.9,7.7-14.7,7.7
	C1100.4,215.3,1096.2,213.1,1093.1,208.8z"/>
<path class="st0" d="M1191.9,200l15.6-52.5h24.2l-33.9,97.6l-1.9,4.4c-5.1,11-13.4,16.6-25,16.6c-3.3,0-6.6-0.5-10-1.5v-17.1
	l3.4,0.1c4.3,0,7.4-0.7,9.5-2c2.1-1.3,3.8-3.5,5-6.5l2.7-6.9l-29.6-84.7h24.2L1191.9,200z"/>
<path class="st0" d="M236.6,222.6c-0.2,0-0.5,0-0.7-0.1c-1.7-0.3-3-1.4-3.5-2.9c-0.7,1.6-2.3,2.7-4.1,2.7h-49.4
	c-1.9,0-3.6-1.2-4.2-3c-0.5,1.3-1.5,2.5-3,2.9c-2.4,0.7-4.9-0.7-5.6-3c-1.6-5.6-6.5-13-11.2-20.2l-0.1-0.2
	c-5.2-8-11.1-17.1-15.4-27.1c-0.5-1.1-0.5-2.3-0.1-3.4c0.4-1.1,1.3-2,2.4-2.5l7.6-3.3c1.1-0.5,2.3-0.5,3.4-0.1s2,1.3,2.5,2.4
	c3.8,8.7,9.1,16.9,14.2,24.7c5.4,8.3,10.5,16.1,13,23.8h42.2c2.4-10.6,8.5-20.2,14.4-29.4c7.9-12.3,16-25.1,16-40.6
	c0-28.9-23.5-52.4-52.4-52.4c-2.5,0-4.5-2-4.5-4.5v-8.3c0-2.5,2-4.5,4.5-4.5c38.4,0,69.7,31.3,69.7,69.7c0,20.5-9.9,36.1-18.7,49.8
	c-5.8,9-11.2,17.4-12.5,25.7C240.7,221,238.8,222.6,236.6,222.6z"/>
<path class="st2" d="M135.4,173.8C90.6,117.1,69.5,61.8,150.6,2c47.5,45,60.1,100.1,12,166.9c-16-24.4-20.6-50.8-14.3-80.6
	C128.7,108.9,122.2,134.5,135.4,173.8z"/>
<path class="st3" d="M135.4,173.8C90.6,117.1,69.5,61.8,150.6,2c47.5,45,60.1,100.1,12,166.9c-16-24.4-20.6-50.8-14.3-80.6
	C128.7,108.9,122.2,134.5,135.4,173.8"/>
<path class="st2" d="M104.9,174.4C37.2,175.6,40.5,144.8,2,116.7c39.8-26.4,84.7-18.7,110.7,45c-20.3-20.9-45.3-27.3-60.9-28.1
	C79.6,145.2,102.6,170.9,104.9,174.4z"/>
<path class="st3" d="M104.9,174.4C37.2,175.6,40.5,144.8,2,116.7c39.8-26.4,84.7-18.7,110.7,45c-20.3-20.9-45.3-27.3-60.9-28.1
	C79.6,145.2,102.6,170.9,104.9,174.4"/>
<path class="st0" d="M167.1,233c0-2.2,1.8-4,4-4h65c2.2,0,4,1.8,4,4v14c0,12.1-9.8,22-22,22h-29c-12.1,0-22-9.9-22-22V233z"/>
<path class="st0" d="M189.1,275c0-1.1,0.9-2,2-2h25c1.1,0,2,0.9,2,2v7c0,4.4-3.6,8-8,8h-13c-4.4,0-8-3.6-8-8V275z"/>
<path class="st0" d="M173.1,209h61c3.9,0,7,3.1,7,7v2c0,3.9-3.1,7-7,7h-61c-3.9,0-7-3.1-7-7v-2C166.1,212.1,169.2,209,173.1,209z"/>
</svg>
