<?xml version="1.0" encoding="utf-8"?>
<!-- Generator: Adobe Illustrator 23.1.1, SVG Export Plug-In . SVG Version: 6.00 Build 0)  -->
<svg version="1.1" id="Layer_1" xmlns="http://www.w3.org/2000/svg" xmlns:xlink="http://www.w3.org/1999/xlink" x="0px" y="0px"
	 viewBox="0 0 1232 290" style="enable-background:new 0 0 1232 290;" xml:space="preserve">
<style type="text/css">
	.st0{fill:#191919;}
	.st1{fill-rule:evenodd;clip-rule:evenodd;fill:#191919;}
	.st2{fill:#FFDD04;}
</style>
<g>
	<path class="st0" d="M412.9,232.1h-15l-57.2-87.6v87.6h-15V118.5h15l57.3,88v-88h14.9V232.1z"/>
	<path class="st1" d="M444.3,222.4c7.2,7.5,16.5,11.3,27.9,11.3c14.1,0,24.8-5.4,31.8-16.3l-8.8-6.9c-2.6,3.4-5.7,6.2-9.3,8.3
		c-3.5,2.1-7.9,3.1-12.9,3.1c-7.2,0-13.1-2.6-17.7-7.7c-4.7-5.1-7.1-11.9-7.3-20.2h57.2v-6c0-13.5-3-23.8-9.1-31.1
		c-6.1-7.2-14.6-10.9-25.6-10.9c-6.7,0-12.9,1.9-18.7,5.6c-5.8,3.7-10.2,8.9-13.4,15.5c-3.2,6.6-4.8,14.1-4.8,22.4v2.6
		C433.5,204.8,437.1,214.9,444.3,222.4z M455.8,164.3c4-4.2,8.8-6.4,14.7-6.4c6,0,10.8,2,14.4,6.1c3.5,4,5.5,9.7,5.9,17.1v1.1h-42.3
		C449.4,174.5,451.8,168.6,455.8,164.3z"/>
	<path class="st0" d="M573.9,223.8c-5.6,6.6-13.9,9.9-24.7,9.9c-9,0-15.8-2.6-20.5-7.8c-4.7-5.2-7.1-13-7.1-23.2v-55h14.4v54.6
		c0,12.8,5.2,19.2,15.6,19.2c11,0,18.4-4.1,22-12.3v-61.4H588v84.5h-13.7L573.9,223.8z"/>
	<path class="st1" d="M617,222.4c7.2,7.5,16.5,11.3,27.9,11.3c14.1,0,24.8-5.4,31.8-16.3l-8.8-6.9c-2.7,3.4-5.7,6.2-9.3,8.3
		c-3.5,2.1-7.9,3.1-12.9,3.1c-7.2,0-13.1-2.6-17.7-7.7c-4.7-5.1-7.1-11.9-7.3-20.2h57.2v-6c0-13.5-3-23.8-9.1-31.1
		c-6.1-7.2-14.6-10.9-25.6-10.9c-6.7,0-12.9,1.9-18.7,5.6c-5.7,3.7-10.2,8.9-13.4,15.5c-3.2,6.6-4.8,14.1-4.8,22.4v2.6
		C606.2,204.8,609.8,214.9,617,222.4z M628.4,164.3c3.9-4.2,8.8-6.4,14.7-6.4c6,0,10.8,2,14.3,6.1c3.5,4,5.5,9.7,5.9,17.1v1.1h-42.3
		C622,174.5,624.5,168.6,628.4,164.3z"/>
	<path class="st0" d="M735.3,160.6c-2.2-0.4-4.6-0.5-7.1-0.5c-9.5,0-15.9,4-19.3,12.1v60h-14.4v-84.5h14l0.2,9.8
		c4.7-7.5,11.4-11.3,20.1-11.3c2.8,0,4.9,0.4,6.4,1.1V160.6z"/>
	<path class="st0" d="M816.1,182.9h-44.9v30.4h52.7v18.8h-76.1V118.5h76v19h-52.6v27.1h44.9V182.9z"/>
	<path class="st0" d="M856.9,147.7l0.7,9.8c6-7.5,14.1-11.3,24.2-11.3c8.9,0,15.6,2.6,20,7.9c4.4,5.3,6.6,13.1,6.7,23.6v54.6h-22.5
		v-54c0-4.8-1-8.3-3.1-10.4c-2.1-2.2-5.6-3.2-10.4-3.2c-6.3,0-11.1,2.7-14.3,8.1v59.6h-22.5v-84.5L856.9,147.7L856.9,147.7z"/>
	<path class="st1" d="M934.2,222.3c7.8,7.6,17.8,11.4,30.2,11.4c7,0,13.4-1.3,19.2-4c5.8-2.7,10.3-6.4,13.7-11.2l-11.1-12.4
		c-4.9,6.3-11.7,9.4-20.3,9.4c-5.6,0-10.3-1.7-13.9-5c-3.7-3.3-5.9-7.7-6.6-13.3h53.7V188c0-13.4-3.3-23.7-9.9-31
		c-6.6-7.3-15.7-10.9-27.3-10.9c-7.7,0-14.6,1.8-20.6,5.4c-6,3.6-10.6,8.8-13.9,15.5c-3.3,6.7-4.9,14.3-4.9,22.8v2.2
		C922.5,204.6,926.4,214.7,934.2,222.3z M950.9,168.8c2.8-3,6.4-4.6,10.9-4.6c4.8,0,8.5,1.4,11.1,4.1c2.6,2.7,3.9,6.6,4.1,11.6v1.8
		h-31.4C946.4,176.2,948.2,171.9,950.9,168.8z"/>
	<path class="st0" d="M1059.3,168.8c-3.1-0.4-5.8-0.6-8.1-0.6c-8.5,0-14.1,2.9-16.8,8.7v55.3h-22.5v-84.5h21.3l0.6,10.1
		c4.5-7.8,10.8-11.6,18.8-11.6c2.5,0,4.8,0.3,7,1L1059.3,168.8z"/>
	<path class="st1" d="M1074.6,158c-6.2,7.9-9.2,18.3-9.2,31.3h0v0.9c0,13.1,3.1,23.6,9.4,31.6c6.2,7.9,14.5,11.9,24.6,11.9
		c8.5,0,15.3-2.9,20.5-8.8v4.5c0,5.9-1.7,10.4-5,13.6c-3.3,3.2-8,4.8-13.9,4.8c-8,0-14.8-3.1-20.4-9.4l-10,13.7
		c3,3.9,7.4,7.1,13.3,9.6c5.9,2.5,11.9,3.7,18.1,3.7c8.2,0,15.3-1.4,21.4-4.3c6.1-2.9,10.8-7,14.1-12.5c3.4-5.5,5-11.9,5-19.3v-81.7
		h-20.4l-0.9,8c-5.1-6.4-12.3-9.5-21.6-9.5C1089.1,146.1,1080.8,150.1,1074.6,158z M1092.5,209c-3.1-4.3-4.6-10.4-4.6-18
		c0-8.8,1.6-15.4,4.6-19.9c3.1-4.4,7.3-6.7,12.8-6.7c6.7,0,11.6,2.6,14.6,7.7v35.6c-3,5.2-7.9,7.7-14.7,7.7
		C1099.8,215.5,1095.6,213.3,1092.5,209z"/>
	<path class="st0" d="M1191.3,200.2l15.6-52.5h24.2l-33.9,97.6l-1.9,4.4c-5.1,11-13.4,16.6-25,16.6c-3.3,0-6.6-0.5-10-1.5v-17.1
		l3.4,0.1c4.3,0,7.4-0.7,9.5-2c2.1-1.3,3.8-3.5,5-6.5l2.7-6.9l-29.6-84.7h24.2L1191.3,200.2z"/>
	<path class="st2" d="M151.1,1.1c-0.5-0.5-1.3-0.6-1.9-0.1c-33.3,24.5-51.2,49.5-54.8,76.2c-2.6,19.1-0.4,47.4,39.3,97.7
		c0.3,0.4,0.7,0.6,1.2,0.6c0.2,0,0.5-0.1,0.7-0.2c0.6-0.3,0.9-1.1,0.7-1.8c-11.4-33.9-8.7-58.8,9-80c-4.8,28.2,0.3,53.2,15.5,76.4
		c0.3,0.4,0.7,0.7,1.2,0.7c0.5,0,1-0.2,1.2-0.6C207.9,108,203.8,51.2,151.1,1.1z"/>
	<path class="st2" d="M113.5,161.4c-12.6-31-30.8-50.9-52.6-57.6C42,97.9,21.2,102,0.6,115.7c-0.4,0.3-0.7,0.7-0.7,1.2
		s0.2,1,0.6,1.2c11.7,8.5,19.7,17.5,26.7,25.5c16.1,18.1,28.8,32.5,73.2,32.5c1.3,0,2.5,0,3.9,0c0.5,0,1-0.3,1.3-0.8
		s0.2-1.1-0.1-1.5c-1.9-2.8-20.7-24.5-45.6-37.5c13,2.1,33.3,8.4,51.1,26.7c0.5,0.5,1.3,0.6,1.9,0.2
		C113.5,162.8,113.8,162,113.5,161.4z"/>
	<path class="st0" d="M166.5,233.2c0-2.2,1.8-4,4-4h65c2.2,0,4,1.8,4,4v14c0,12.2-9.8,22-22,22h-29c-12.1,0-22-9.9-22-22V233.2z"/>
	<path class="st0" d="M188.5,275.2c0-1.1,0.9-2,2-2h25c1.1,0,2,0.9,2,2v7c0,4.4-3.6,8-8,8h-13c-4.4,0-8-3.6-8-8V275.2z"/>
	<path class="st0" d="M202,73.8c-2.5,0-4.5,2-4.5,4.5v8.3c0,2.5,2,4.5,4.5,4.5c28.9,0,52.4,23.5,52.4,52.4c0,15.5-8.1,28.2-16,40.6
		c-5.1,8-10.4,16.2-13.3,25.1h-45c-2.8-6.3-7-12.8-11.3-19.5c-5.1-7.9-10.4-16-14.2-24.7c-0.5-1.1-1.4-2-2.5-2.4
		c-1.1-0.4-2.3-0.4-3.4,0.1l-7.6,3.3c-1.1,0.5-2,1.4-2.4,2.5c-0.4,1.1-0.4,2.4,0.1,3.4c4.3,10,10.2,19,15.4,27.1l0.2,0.2
		c4.7,7.2,9.6,14.7,11.2,20.2c0.1,0.2,0.2,0.5,0.3,0.7c0.8,3,3.5,5.1,6.7,5.1h61c3.5,0,6.4-2.6,6.9-5.9c0-0.1,0-0.2,0.1-0.2
		c1.3-8.3,6.7-16.7,12.5-25.7c8.8-13.7,18.7-29.3,18.7-49.8C271.6,105.1,240.4,73.8,202,73.8z"/>
</g>
</svg>
